HIERARCHY
ROOT Hips
{
	OFFSET -13.091600 -28.302996 44.698402
	CHANNELS 6 Xposition Yposition Zposition Zrotation Xrotation Yrotation
	JOINT Chest
	{
		OFFSET -0.673000 0.623899 5.369202
		CHANNELS 6 Xposition Yposition Zposition Zrotation Xrotation Yrotation
		JOINT Chest2
		{
			OFFSET 0.000000 0.000000 4.415001
			CHANNELS 6 Xposition Yposition Zposition Zrotation Xrotation Yrotation
			JOINT Neck
			{
				OFFSET 0.000000 0.000002 10.273300
				CHANNELS 6 Xposition Yposition Zposition Zrotation Xrotation Yrotation
				JOINT Head
				{
					OFFSET 0.000000 0.000000 2.173897
					CHANNELS 6 Xposition Yposition Zposition Zrotation Xrotation Yrotation
					End Site
					{
						OFFSET 0.000000 0.000000 9.961800
					}
				}
			}
			JOINT LeftCollar
			{
				OFFSET 2.359900 -0.565201 5.928101
				CHANNELS 6 Xposition Yposition Zposition Zrotation Xrotation Yrotation
				JOINT LeftShoulder
				{
					OFFSET 5.443700 0.000000 0.000000
					CHANNELS 6 Xposition Yposition Zposition Zrotation Xrotation Yrotation
					JOINT LeftElbow
					{
						OFFSET 0.000000 0.000000 -10.615799
						CHANNELS 6 Xposition Yposition Zposition Zrotation Xrotation Yrotation
						JOINT LeftWrist
						{
							OFFSET 0.000000 -0.000002 -13.110302
							CHANNELS 6 Xposition Yposition Zposition Zrotation Xrotation Yrotation
							End Site
							{
								OFFSET 0.000000 0.000000 -2.173901
							}
						}
					}
				}
			}
			JOINT RightCollar
			{
				OFFSET -2.636600 -1.718800 6.889698
				CHANNELS 6 Xposition Yposition Zposition Zrotation Xrotation Yrotation
				JOINT RightShoulder
				{
					OFFSET -4.139101 0.000000 0.000000
					CHANNELS 6 Xposition Yposition Zposition Zrotation Xrotation Yrotation
					JOINT RightElbow
					{
						OFFSET 0.000000 0.000000 -10.471802
						CHANNELS 6 Xposition Yposition Zposition Zrotation Xrotation Yrotation
						JOINT RightWrist
						{
							OFFSET 0.000000 0.000000 -12.281898
							CHANNELS 6 Xposition Yposition Zposition Zrotation Xrotation Yrotation
							End Site
							{
								OFFSET 0.000000 -0.000002 -2.173901
							}
						}
					}
				}
			}
		}
	}
	JOINT LeftHip
	{
		OFFSET 2.273400 0.176701 -2.518002
		CHANNELS 6 Xposition Yposition Zposition Zrotation Xrotation Yrotation
		JOINT LeftKnee
		{
			OFFSET 0.000000 -0.000002 -20.456402
			CHANNELS 6 Xposition Yposition Zposition Zrotation Xrotation Yrotation
			JOINT LeftAnkle
			{
				OFFSET 0.000000 -0.000002 -16.635300
				CHANNELS 6 Xposition Yposition Zposition Zrotation Xrotation Yrotation
				End Site
				{
					OFFSET 0.000000 -8.812399 0.000001
				}
			}
		}
	}
	JOINT RightHip
	{
		OFFSET -1.914800 0.018101 -2.699299
		CHANNELS 6 Xposition Yposition Zposition Zrotation Xrotation Yrotation
		JOINT RightKnee
		{
			OFFSET 0.000000 -0.000002 -20.148901
			CHANNELS 6 Xposition Yposition Zposition Zrotation Xrotation Yrotation
			JOINT RightAnkle
			{
				OFFSET 0.000000 -0.000002 -16.838301
				CHANNELS 6 Xposition Yposition Zposition Zrotation Xrotation Yrotation
				End Site
				{
					OFFSET 0.000000 -8.328398 0.000001
				}
			}
		}
	}
}
MOTION
Frames: 4
Frame Time: 0.041667
-15.062503 11.620909 49.127903 3498.953353 -5.582349 -1.960318 -0.672999 0.623896 5.369208 -22.207546 -2.260637 -0.699533 0.000000 0.000001 4.414998 5.720578 2.493692 0.276005 0.000000 -0.000006 10.273303 28.890297 27.060248 1.911194 -0.000002 -0.000003 2.173889 3.169549 0.493020 2.356299 2.359901 -0.565201 5.928097 5.096852 -6.287125 -29.229532 5.443691 -0.000000 -0.000005 -54.657226 316.325786 -135.313479 -0.000001 -0.000002 -10.615800 593.923197 -157.610713 187.269963 -0.000004 -0.000002 -13.110292 -1945.571189 182.067462 -583.174119 -2.636601 -1.718804 6.889696 186.598132 -184.211199 181.949423 -4.139100 -0.000005 0.000002 -211.185242 -182.861608 215.088504 0.000001 -0.000004 -10.471804 -27.925896 0.106016 -357.481255 -0.000001 -0.000004 -12.281896 -56.466810 27.594540 44.232046 2.273403 0.176698 -2.517998 -537.187056 -183.776840 -180.927586 -0.000002 0.000000 -20.456396 892.589447 156.189146 -169.338353 -0.000004 -0.000001 -16.635300 -342.627233 28.650294 18.975334 -1.914799 0.018101 -2.699299 144.264442 200.711229 174.141670 0.000001 -0.000008 -20.148905 -863.741515 -229.564188 174.337710 -0.000000 -0.000007 -16.838301 1095.198430 62.751994 -10.200449
-14.995700 11.597013 49.030609 3498.769539 -5.595261 -1.793514 -0.673002 0.623899 5.369207 -22.664688 -1.773634 -0.482824 0.000001 -0.000001 4.415002 5.712751 2.324483 0.252045 -0.000002 0.000001 10.273302 27.665514 26.612154 3.140885 -0.000002 0.000000 2.173901 3.857822 0.962144 1.585880 2.359899 -0.565203 5.928106 5.576316 -6.949745 -29.057042 5.443698 0.000000 -0.000003 -55.798250 316.097357 -135.152655 0.000001 0.000001 -10.615782 593.917078 -156.682340 187.954525 -0.000002 -0.000007 -13.110297 -1945.981656 182.332952 -583.666330 -2.636604 -1.718804 6.889696 183.666410 -183.503947 182.140887 -4.139101 -0.000008 0.000003 -210.037060 -182.304374 216.550547 -0.000004 -0.000004 -10.471799 -28.045670 0.108156 -357.345498 -0.000002 -0.000006 -12.281902 -56.009320 27.598510 44.750935 2.273402 0.176701 -2.517998 -537.537418 -183.859636 -180.934908 -0.000003 0.000000 -20.456398 892.629390 156.196796 -169.235504 -0.000005 -0.000001 -16.635298 -341.859465 27.525792 19.353893 -1.914796 0.018103 -2.699297 143.354456 201.086575 173.157043 -0.000002 -0.000003 -20.148907 -862.688792 -230.582542 174.261608 0.000003 -0.000005 -16.838301 1095.016474 62.909922 -10.128073
-14.927901 11.575308 48.922802 3498.604740 -5.532469 -1.527331 -0.673002 0.623900 5.369212 -23.143736 -1.214794 -0.429936 0.000003 0.000000 4.415007 5.738004 2.105291 0.225103 -0.000002 -0.000003 10.273303 27.945318 25.830280 3.470211 -0.000002 0.000002 2.173896 3.792026 1.550454 1.324910 2.359900 -0.565202 5.928096 6.381353 -8.171192 -28.905067 5.443699 -0.000003 0.000003 -56.969836 316.085801 -134.472368 -0.000001 0.000000 -10.615793 594.324703 -155.871884 188.668881 -0.000003 -0.000005 -13.110298 -1946.433869 182.596652 -584.230285 -2.636604 -1.718804 6.889699 180.734401 -182.951261 182.614178 -4.139102 -0.000003 0.000006 -208.645504 -181.574746 217.776511 -0.000003 -0.000001 -10.471806 -27.812800 0.240338 -357.330909 -0.000001 -0.000001 -12.281892 -56.145941 27.527257 45.220473 2.273399 0.176703 -2.517994 -538.056676 -183.904961 -181.048958 -0.000001 -0.000000 -20.456402 892.610648 156.295984 -169.034628 -0.000006 0.000002 -16.635296 -340.895015 26.201169 20.121160 -1.914800 0.018104 -2.699288 142.319627 201.434231 172.092941 0.000002 -0.000006 -20.148903 -860.994795 -231.546965 173.634419 -0.000000 -0.000004 -16.838301 1094.345258 62.948253 -9.734879
-14.867901 11.541208 48.818108 3498.363006 -5.458258 -1.380972 -0.673002 0.623899 5.369211 -24.050824 -1.249873 -0.317121 -0.000000 0.000001 4.415005 6.065836 2.105392 0.221117 0.000000 -0.000002 10.273292 28.497052 25.686823 3.217865 -0.000001 0.000000 2.173894 3.774829 1.724537 1.443284 2.359902 -0.565202 5.928099 6.200980 -8.336703 -29.308099 5.443690 -0.000003 -0.000005 -56.979934 315.506273 -133.781249 0.000002 -0.000001 -10.615785 591.962004 -154.688444 188.309176 0.000000 -0.000012 -13.110306 -1944.683155 182.894981 -584.810796 -2.636600 -1.718802 6.889700 180.223516 -182.939718 183.082729 -4.139101 -0.000005 0.000003 -209.043458 -181.125634 218.790821 -0.000001 -0.000002 -10.471807 -28.184550 0.222151 -357.339050 -0.000003 -0.000002 -12.281898 -55.857738 27.500514 45.085594 2.273402 0.176704 -2.518003 -538.060883 -183.882544 -181.081675 -0.000001 0.000001 -20.456406 890.948344 155.811751 -168.787908 -0.000005 -0.000003 -16.635298 -340.363107 23.889483 23.660209 -1.914796 0.018106 -2.699304 141.922452 201.808922 171.395893 -0.000001 -0.000004 -20.148895 -859.532589 -232.374510 172.760319 0.000001 -0.000003 -16.838305 1093.374387 62.832351 -9.069171
